<svg id="Layer_1" data-name="Layer 1" xmlns="http://www.w3.org/2000/svg" viewBox="0 0 566.93 566.93"><defs><style>.cls-1{fill:#0033a1;}</style></defs><path class="cls-1" d="M141,216.55l-.08-.06a3.32,3.32,0,0,0-4.69,4.15c-.85.79-1.68,1.59-2.5,2.42a79,79,0,0,0,.88,111.55,80.33,80.33,0,0,0,9.56,8,3.32,3.32,0,1,0,4.92-2.67,3.28,3.28,0,0,0-3.25,0A75.81,75.81,0,0,1,136,225.26c.89-.9,1.8-1.77,2.72-2.62a3.29,3.29,0,0,0,3.93-3.37A75.84,75.84,0,0,1,214,206.56a3.32,3.32,0,1,0,1.05-2.95A79,79,0,0,0,141,216.55Z"/><path class="cls-1" d="M146.78,235.91A60.58,60.58,0,0,0,189.89,339c1.08,0,2.16,0,3.25-.09a3.31,3.31,0,1,0,0-3.25l-.05.12a57.44,57.44,0,1,1,35.11-100.22,3.32,3.32,0,1,0,4.78-1.89,3.37,3.37,0,0,0-2.53-.29A60.66,60.66,0,0,0,146.78,235.91Z"/><path class="cls-1" d="M191.27,230A48.43,48.43,0,1,0,239.7,278.4,48.42,48.42,0,0,0,191.27,230Zm0,80.51a32.09,32.09,0,1,1,32.08-32.08A32.08,32.08,0,0,1,191.27,310.48Z"/><path class="cls-1" d="M309.07,275.77q0,6.86.87,23.4h-.41l-36.87-63.58H250v84.89H266v-40q0-7.26-1.1-24.27h.52l36.93,64.22h22.88V235.59h-16.2Z"/><polygon class="cls-1" points="384.96 250.34 384.96 235.59 336.07 235.59 336.07 320.48 384.96 320.48 384.96 305.61 354.07 305.61 354.07 283.72 382.82 283.72 382.82 268.98 354.07 268.98 354.07 250.34 384.96 250.34"/><path class="cls-1" d="M229.63,331.17a3.33,3.33,0,0,0-4.52,1.29,3.27,3.27,0,0,0-.33,2.34,66.4,66.4,0,0,1-93.32-25.16,3.21,3.21,0,0,0,.21-.3,3.32,3.32,0,0,0-1.28-4.52,3.42,3.42,0,0,0-1.44-.4,66.31,66.31,0,0,1,57.6-92.21,3.28,3.28,0,0,0,1.24,1.24,3.32,3.32,0,1,0-1.28-4.52.94.94,0,0,0-.06.15,69.48,69.48,0,0,0-60.33,96.67,2.9,2.9,0,0,0-.25.36,3.33,3.33,0,0,0,1.28,4.52,3.44,3.44,0,0,0,1.51.4A69.57,69.57,0,0,0,190,347.84a69.08,69.08,0,0,0,36.88-10.66,3.32,3.32,0,0,0,2.76-6Z"/><path class="cls-1" d="M162.82,357.85a3.32,3.32,0,0,0-3.72.34A85.53,85.53,0,0,1,201,193.6a3.31,3.31,0,1,0,.41-3.11A88.66,88.66,0,0,0,127.74,341.6a87.87,87.87,0,0,0,30.16,19.48,3.32,3.32,0,1,0,4.92-3.23Z"/><path class="cls-1" d="M419.65,248.88h-2.79v-6a2.91,2.91,0,0,0-.39-1.66,1.42,1.42,0,0,0-1.25-.55,1.89,1.89,0,0,0-1.7.78,4.94,4.94,0,0,0-.52,2.6v4.81h-2.79V238.65h2.13l.38,1.31h.15a2.88,2.88,0,0,1,1.29-1.12,4.27,4.27,0,0,1,1.86-.38,3.6,3.6,0,0,1,2.71,1,3.93,3.93,0,0,1,.92,2.79Z"/><path class="cls-1" d="M421.56,244.45v-2.29h4.92v2.29Z"/><path class="cls-1" d="M439.76,242.06a6.6,6.6,0,0,1-1.88,5.06,7.66,7.66,0,0,1-5.43,1.76h-3.79V235.5h4.2a7.1,7.1,0,0,1,5.09,1.73A6.34,6.34,0,0,1,439.76,242.06Zm-2.95.08c0-2.88-1.27-4.31-3.8-4.31H431.5v8.71h1.21C435.45,246.54,436.81,245.07,436.81,242.14Z"/><path class="cls-1" d="M445.72,249.06a5.29,5.29,0,0,1-3.86-1.36,5.2,5.2,0,0,1-1.39-3.86,5.67,5.67,0,0,1,1.29-4,4.58,4.58,0,0,1,3.55-1.4,4.53,4.53,0,0,1,3.38,1.23,4.71,4.71,0,0,1,1.21,3.42v1.35h-6.6a2.7,2.7,0,0,0,.7,1.86,2.51,2.51,0,0,0,1.85.67,7.56,7.56,0,0,0,1.75-.2,8.91,8.91,0,0,0,1.72-.61v2.16a6.77,6.77,0,0,1-1.57.54A9.73,9.73,0,0,1,445.72,249.06Zm-.39-8.62a1.75,1.75,0,0,0-1.39.57,2.55,2.55,0,0,0-.58,1.59h3.92a2.28,2.28,0,0,0-.54-1.59A1.82,1.82,0,0,0,445.33,240.44Z"/><path class="cls-1" d="M453.94,248.88,450,238.65H453l2,5.83a9.35,9.35,0,0,1,.39,2.09h.08a7.51,7.51,0,0,1,.41-2.09l2-5.83h2.91l-3.89,10.23Z"/><path class="cls-1" d="M461.58,236c0-.91.51-1.37,1.52-1.37s1.52.46,1.52,1.37a1.34,1.34,0,0,1-.38,1,1.59,1.59,0,0,1-1.14.36C462.09,237.38,461.58,236.92,461.58,236Zm2.91,12.87H461.7V238.65h2.79Z"/><path class="cls-1" d="M470.35,249.06q-4.77,0-4.77-5.24a5.59,5.59,0,0,1,1.3-4,4.88,4.88,0,0,1,3.72-1.37,7.11,7.11,0,0,1,3.18.69l-.82,2.16c-.44-.17-.85-.32-1.23-.43a3.65,3.65,0,0,0-1.13-.17c-1.45,0-2.18,1-2.18,3.09s.73,3,2.18,3a5.06,5.06,0,0,0,1.49-.21,5.3,5.3,0,0,0,1.37-.68v2.39a4.39,4.39,0,0,1-1.36.6A7.72,7.72,0,0,1,470.35,249.06Z"/><path class="cls-1" d="M479.25,249.06a5.3,5.3,0,0,1-3.87-1.36,5.2,5.2,0,0,1-1.39-3.86,5.67,5.67,0,0,1,1.29-4,4.59,4.59,0,0,1,3.55-1.4,4.51,4.51,0,0,1,3.38,1.23,4.67,4.67,0,0,1,1.21,3.42v1.35h-6.6a2.7,2.7,0,0,0,.71,1.86,2.47,2.47,0,0,0,1.84.67,7.56,7.56,0,0,0,1.75-.2,8.91,8.91,0,0,0,1.72-.61v2.16a6.85,6.85,0,0,1-1.56.54A9.86,9.86,0,0,1,479.25,249.06Zm-.4-8.62a1.77,1.77,0,0,0-1.39.57,2.55,2.55,0,0,0-.57,1.59h3.91a2.28,2.28,0,0,0-.54-1.59A1.82,1.82,0,0,0,478.85,240.44Z"/><path class="cls-1" d="M408.75,266.5h-3.61l-5.82-10.12h-.08c.12,1.79.17,3.06.17,3.82v6.3h-2.53V253.12h3.58l5.81,10h.06c-.09-1.74-.14-3-.14-3.69v-6.33h2.56Z"/><path class="cls-1" d="M415.31,266.68a5.3,5.3,0,0,1-3.87-1.36,5.2,5.2,0,0,1-1.39-3.86,5.67,5.67,0,0,1,1.29-4,4.59,4.59,0,0,1,3.55-1.4,4.51,4.51,0,0,1,3.38,1.23,4.67,4.67,0,0,1,1.21,3.42v1.35h-6.6a2.7,2.7,0,0,0,.71,1.86,2.47,2.47,0,0,0,1.84.67,7.56,7.56,0,0,0,1.75-.2,8.91,8.91,0,0,0,1.72-.61V266a6.85,6.85,0,0,1-1.56.54A9.86,9.86,0,0,1,415.31,266.68Zm-.4-8.62a1.77,1.77,0,0,0-1.39.57,2.55,2.55,0,0,0-.57,1.59h3.91a2.28,2.28,0,0,0-.54-1.59A1.82,1.82,0,0,0,414.91,258.06Z"/><path class="cls-1" d="M428.15,266.5l-.38-1.31h-.14a2.91,2.91,0,0,1-1.27,1.1,4.36,4.36,0,0,1-1.88.39,3.59,3.59,0,0,1-2.72-1,3.9,3.9,0,0,1-.91-2.78v-6.67h2.79v6a2.91,2.91,0,0,0,.39,1.66,1.43,1.43,0,0,0,1.26.55,1.89,1.89,0,0,0,1.69-.78,4.85,4.85,0,0,0,.52-2.6v-4.81h2.79V266.5Z"/><path class="cls-1" d="M437.71,256.08a4.84,4.84,0,0,1,.94.08l-.21,2.62a3.21,3.21,0,0,0-.82-.09,2.93,2.93,0,0,0-2.08.68,2.48,2.48,0,0,0-.75,1.92v5.21H432V256.27h2.11l.42,1.72h.13A3.91,3.91,0,0,1,436,256.6,3.18,3.18,0,0,1,437.71,256.08Z"/><path class="cls-1" d="M446,266.5l-.54-1.39h-.08a4.13,4.13,0,0,1-1.45,1.23,4.62,4.62,0,0,1-1.94.34,3.15,3.15,0,0,1-2.32-.84,3.21,3.21,0,0,1-.85-2.4,2.71,2.71,0,0,1,1.14-2.4,6.63,6.63,0,0,1,3.44-.85l1.77-.06v-.45a1.39,1.39,0,0,0-1.59-1.55,7.12,7.12,0,0,0-2.88.74l-.93-1.89a8.42,8.42,0,0,1,3.92-.92,4.9,4.9,0,0,1,3.16.9,3.3,3.3,0,0,1,1.09,2.72v6.82Zm-.83-4.74-1.08,0a3.41,3.41,0,0,0-1.81.44,1.35,1.35,0,0,0-.59,1.22c0,.79.45,1.18,1.35,1.18a2.11,2.11,0,0,0,1.55-.56,1.94,1.94,0,0,0,.58-1.48Z"/><path class="cls-1" d="M452.37,266.5h-2.79V252.26h2.79Z"/><path class="cls-1" d="M404.58,284.12h-7.7V270.74h7.7v2.33h-4.86V276h4.53v2.32h-4.53v3.45h4.86Z"/><path class="cls-1" d="M416.13,284.12h-2.79v-6a2.78,2.78,0,0,0-.4-1.66,1.43,1.43,0,0,0-1.25-.56,1.89,1.89,0,0,0-1.69.78,4.87,4.87,0,0,0-.52,2.6v4.81h-2.79V273.89h2.13l.37,1.31h.16a2.94,2.94,0,0,1,1.29-1.12,4.38,4.38,0,0,1,1.86-.38,3.56,3.56,0,0,1,2.71,1,3.88,3.88,0,0,1,.92,2.78Z"/><path class="cls-1" d="M426.72,284.14a4.25,4.25,0,0,1-1.28,3.34,5.63,5.63,0,0,1-3.83,1.14,10.84,10.84,0,0,1-3.83-.6v-2.23a10.21,10.21,0,0,0,4,.78c1.43,0,2.15-.77,2.15-2.32v-.2l.08-1.26h-.08a3.22,3.22,0,0,1-2.9,1.51,3.32,3.32,0,0,1-2.85-1.41,6.6,6.6,0,0,1-1-3.87,6.45,6.45,0,0,1,1-3.92,3.42,3.42,0,0,1,2.89-1.4,3.46,3.46,0,0,1,3,1.5h.07l.23-1.31h2.36Zm-4.7-2a1.88,1.88,0,0,0,1.61-.65,3.54,3.54,0,0,0,.48-2.09V279a4.25,4.25,0,0,0-.5-2.35A1.87,1.87,0,0,0,422,276c-1.31,0-2,1-2,3.09a4.28,4.28,0,0,0,.49,2.3A1.68,1.68,0,0,0,422,282.12Z"/><path class="cls-1" d="M428.3,271.25c0-.91.51-1.37,1.52-1.37s1.52.46,1.52,1.37a1.34,1.34,0,0,1-.38,1,1.59,1.59,0,0,1-1.14.36C428.81,272.62,428.3,272.16,428.3,271.25Zm2.91,12.87h-2.79V273.89h2.79Z"/><path class="cls-1" d="M442.74,284.12H440v-6a2.86,2.86,0,0,0-.39-1.66,1.45,1.45,0,0,0-1.26-.56,1.89,1.89,0,0,0-1.69.78,4.87,4.87,0,0,0-.52,2.6v4.81H433.3V273.89h2.13l.38,1.31H436a2.94,2.94,0,0,1,1.29-1.12,4.38,4.38,0,0,1,1.86-.38,3.56,3.56,0,0,1,2.71,1,3.88,3.88,0,0,1,.92,2.78Z"/><path class="cls-1" d="M449,284.3a5.29,5.29,0,0,1-3.86-1.36,5.2,5.2,0,0,1-1.39-3.86,5.69,5.69,0,0,1,1.29-4,4.59,4.59,0,0,1,3.55-1.4,4.49,4.49,0,0,1,3.38,1.24,4.69,4.69,0,0,1,1.21,3.41v1.35h-6.6a2.7,2.7,0,0,0,.7,1.86,2.51,2.51,0,0,0,1.85.67,7.56,7.56,0,0,0,1.75-.2,8.29,8.29,0,0,0,1.72-.61v2.16a6.42,6.42,0,0,1-1.56.55A10.73,10.73,0,0,1,449,284.3Zm-.39-8.61a1.76,1.76,0,0,0-1.39.56,2.58,2.58,0,0,0-.58,1.6h3.92a2.3,2.3,0,0,0-.54-1.6A1.82,1.82,0,0,0,448.63,275.69Z"/><path class="cls-1" d="M402.48,236.54a6.37,6.37,0,1,0,6.37,6.37A6.37,6.37,0,0,0,402.48,236.54Zm0,10.13a3.76,3.76,0,1,1,3.75-3.76A3.76,3.76,0,0,1,402.48,246.67Z"/></svg>