<svg id="Layer_1" data-name="Layer 1" xmlns="http://www.w3.org/2000/svg" viewBox="0 0 566.93 566.93"><defs><style>.cls-1{fill:#0033a1;}</style></defs><path class="cls-1" d="M147.58,204.54l-.1-.07a4,4,0,0,0-5.62,5c-1,.94-2,1.91-3,2.9a94.78,94.78,0,0,0,1.06,133.87,96.52,96.52,0,0,0,11.47,9.63,4,4,0,1,0,2-3.18,93.2,93.2,0,0,1-10.84-9.13,91,91,0,0,1-1-128.55c1.06-1.08,2.16-2.12,3.26-3.14a3.94,3.94,0,0,0,4.71-4,91.06,91.06,0,0,1,85.72-15.25,4,4,0,1,0,1.26-3.54A94.76,94.76,0,0,0,147.58,204.54Z"/><path class="cls-1" d="M154.52,227.77a72.69,72.69,0,0,0,51.73,123.67c1.29,0,2.59,0,3.89-.1a4,4,0,1,0,0-3.9.59.59,0,0,0-.06.14,68.92,68.92,0,1,1,42.13-120.26,4,4,0,1,0,2.7-2.62A72.77,72.77,0,0,0,154.52,227.77Z"/><path class="cls-1" d="M207.9,220.64A58.12,58.12,0,1,0,266,278.76,58.12,58.12,0,0,0,207.9,220.64Zm0,96.61a38.5,38.5,0,1,1,38.5-38.49A38.49,38.49,0,0,1,207.9,317.25Z"/><path class="cls-1" d="M349.26,275.6q0,8.22,1.05,28.08h-.49l-44.25-76.29H278.33V329.25h19.3V281.32q0-8.71-1.32-29.13h.62l44.32,77.06H368.7V227.39H349.26Z"/><polygon class="cls-1" points="440.33 245.08 440.33 227.39 381.67 227.39 381.67 329.25 440.33 329.25 440.33 311.42 403.27 311.42 403.27 285.15 437.76 285.15 437.76 267.45 403.27 267.45 403.27 245.08 440.33 245.08"/><path class="cls-1" d="M253.93,342.09a4,4,0,0,0-5.82,4.35,79.68,79.68,0,0,1-112-30.19,2.9,2.9,0,0,0,.25-.36,4,4,0,0,0-1.54-5.42,3.81,3.81,0,0,0-1.72-.48,79.57,79.57,0,0,1,69.11-110.66,4,4,0,1,0,0-3.93l-.08.18a83.36,83.36,0,0,0-72.39,116,4.15,4.15,0,0,0-.3.43,4,4,0,0,0,1.54,5.42,3.93,3.93,0,0,0,1.81.49A83.25,83.25,0,0,0,250.62,349.3a4,4,0,0,0,3.31-7.21Z"/><path class="cls-1" d="M173.76,374.11a4,4,0,0,0-4.46.4,102.65,102.65,0,0,1-36.15-167.77A102.85,102.85,0,0,1,219.58,177a4,4,0,0,0,7.2.54,4,4,0,0,0-6.7-4.26A106.39,106.39,0,0,0,131.66,354.6,105.42,105.42,0,0,0,167.86,378a4,4,0,1,0,5.9-3.86Z"/></svg>